<svg id="visual" viewBox="0 0 960 540" width="960" height="540" xmlns="http://www.w3.org/2000/svg" xmlns:xlink="http://www.w3.org/1999/xlink" version="1.1"><rect x="0" y="0" width="960" height="540" fill="#e0e5eb"></rect><g transform="translate(462.6340897733008 280.9009808293885)"><path d="M172.7 -173C225.9 -161.2 272.5 -108.8 269.3 -57.7C266.1 -6.7 213.2 42.9 168 74.2C122.8 105.5 85.3 118.5 49.7 127.7C14 136.9 -19.8 142.2 -76.5 148.4C-133.2 154.6 -212.8 161.7 -230.6 132.4C-248.4 103.1 -204.4 37.4 -178.2 -17.6C-152 -72.5 -143.5 -116.7 -116.7 -133.1C-90 -149.4 -45 -138 7.4 -146.8C59.8 -155.6 119.6 -184.7 172.7 -173" fill="#fff"></path></g></svg>